<svg class="animated" id="freepik_stories-astronaut" xmlns="http://www.w3.org/2000/svg" viewBox="0 0 500 500" version="1.1" xmlns:xlink="http://www.w3.org/1999/xlink" xmlns:svgjs="http://svgjs.com/svgjs"><style>svg#freepik_stories-astronaut:not(.animated) .animable {opacity: 0;}svg#freepik_stories-astronaut.animated #freepik--Stars--inject-77 {animation: 1s 1 forwards cubic-bezier(.36,-0.01,.5,1.38) slideUp,6s Infinite  linear floating;animation-delay: 0s,1s;}svg#freepik_stories-astronaut.animated #freepik--Character--inject-77 {animation: 6s Infinite  linear wind;animation-delay: 0s;}            @keyframes slideUp {                0% {                    opacity: 0;                    transform: translateY(30px);                }                100% {                    opacity: 1;                    transform: inherit;                }            }                    @keyframes floating {                0% {                    opacity: 1;                    transform: translateY(0px);                }                50% {                    transform: translateY(-10px);                }                100% {                    opacity: 1;                    transform: translateY(0px);                }            }                    @keyframes wind {                0% {                    transform: rotate( 0deg );                }                25% {                    transform: rotate( 1deg );                }                75% {                    transform: rotate( -1deg );                }            }        .animator-hidden { display: none; }</style><g id="freepik--background-complete--inject-77" class="animable animator-hidden" style="transform-origin: 250px 214.492px;"><rect y="382.4" width="500" height="0.25" style="fill: rgb(224, 224, 224); transform-origin: 250px 382.525px;" id="elcwe6eegmh5f" class="animable"></rect><rect x="327.22" y="395" width="10.48" height="0.25" style="fill: rgb(224, 224, 224); transform-origin: 332.46px 395.125px;" id="eltcqi2yy5sus" class="animable"></rect><rect x="64.93" y="388.44" width="17.85" height="0.25" style="fill: rgb(224, 224, 224); transform-origin: 73.855px 388.565px;" id="el95zzxezb7yv" class="animable"></rect><rect x="149.23" y="394.88" width="30.66" height="0.25" style="fill: rgb(224, 224, 224); transform-origin: 164.56px 395.005px;" id="elofej3gq5a" class="animable"></rect><rect x="220.09" y="389.17" width="45.25" height="0.25" style="fill: rgb(224, 224, 224); transform-origin: 242.715px 389.295px;" id="eljj3blylmcb" class="animable"></rect><rect x="391.44" y="390.76" width="53.95" height="0.25" style="fill: rgb(224, 224, 224); transform-origin: 418.415px 390.885px;" id="elfz3aameh598" class="animable"></rect><rect x="87.61" y="388.44" width="35.34" height="0.25" style="fill: rgb(224, 224, 224); transform-origin: 105.28px 388.565px;" id="eltctm0s3v2l" class="animable"></rect><rect x="451.22" y="390.88" width="14.97" height="0.25" style="fill: rgb(224, 224, 224); transform-origin: 458.705px 391.005px;" id="el23j5jltnccvi" class="animable"></rect><path d="M237,337.8H43.91a5.71,5.71,0,0,1-5.7-5.71V60.66A5.71,5.71,0,0,1,43.91,55H237a5.71,5.71,0,0,1,5.71,5.71V332.09A5.71,5.71,0,0,1,237,337.8ZM43.91,55.2a5.46,5.46,0,0,0-5.45,5.46V332.09a5.46,5.46,0,0,0,5.45,5.46H237a5.47,5.47,0,0,0,5.46-5.46V60.66A5.47,5.47,0,0,0,237,55.2Z" style="fill: rgb(224, 224, 224); transform-origin: 140.46px 196.4px;" id="elmp504uk88ys" class="animable"></path><path d="M453.31,337.8H260.21a5.72,5.72,0,0,1-5.71-5.71V60.66A5.72,5.72,0,0,1,260.21,55h193.1A5.71,5.71,0,0,1,459,60.66V332.09A5.71,5.71,0,0,1,453.31,337.8ZM260.21,55.2a5.47,5.47,0,0,0-5.46,5.46V332.09a5.47,5.47,0,0,0,5.46,5.46h193.1a5.47,5.47,0,0,0,5.46-5.46V60.66a5.47,5.47,0,0,0-5.46-5.46Z" style="fill: rgb(224, 224, 224); transform-origin: 356.75px 196.4px;" id="elhvob1hj93ki" class="animable"></path><path d="M140.43,117A49,49,0,0,1,74,162.78a49,49,0,0,0,0-91.53A49,49,0,0,1,140.43,117Z" style="fill: rgb(245, 245, 245); transform-origin: 107.215px 117.015px;" id="elfz9604i1utj" class="animable"></path><path d="M107,85.21a8.3,8.3,0,0,1,.51,7.08,20.48,20.48,0,0,0-2.3-6.07,21.43,21.43,0,0,0-4-5.14A8.33,8.33,0,0,1,107,85.21Z" style="fill: rgb(230, 230, 230); transform-origin: 104.641px 86.685px;" id="el4af04lqld12" class="animable"></path><path d="M131.17,106.72a8.33,8.33,0,0,1-4.58,5.42,21,21,0,0,0,2.6-6,21.53,21.53,0,0,0,.73-6.46A8.31,8.31,0,0,1,131.17,106.72Z" style="fill: rgb(230, 230, 230); transform-origin: 129.029px 105.91px;" id="elu7ci5gmtd49" class="animable"></path><path d="M128.14,139a8.3,8.3,0,0,1-6.63,2.51,21.08,21.08,0,0,0,5.16-3.94,21.37,21.37,0,0,0,3.77-5.29A8.34,8.34,0,0,1,128.14,139Z" style="fill: rgb(230, 230, 230); transform-origin: 126px 136.908px;" id="elv5cg4bhf269" class="animable"></path><path d="M105.75,155.4a8.31,8.31,0,0,1-6.63,2.52,21.71,21.71,0,0,0,8.93-9.24A8.29,8.29,0,0,1,105.75,155.4Z" style="fill: rgb(230, 230, 230); transform-origin: 103.611px 153.313px;" id="elv43xnuzfsx" class="animable"></path><path d="M117.57,122.78a8.31,8.31,0,0,1-4.31,5.63A21.81,21.81,0,0,0,116,115.86,8.24,8.24,0,0,1,117.57,122.78Z" style="fill: rgb(230, 230, 230); transform-origin: 115.516px 122.135px;" id="elubjbaqe5pl" class="animable"></path><path d="M378.22,150.55a1.5,1.5,0,0,1-1.37-.89c-2.84-6.42,13.18-17.54,30.47-25.2s36.29-12.07,39.14-5.65a1.5,1.5,0,0,1-2.75,1.21c-1.27-2.86-15.6-1.5-35.17,7.18s-30.22,18.37-29,21.24a1.49,1.49,0,0,1-.76,2A1.46,1.46,0,0,1,378.22,150.55Z" style="fill: rgb(245, 245, 245); transform-origin: 411.554px 133.135px;" id="elaocso9screw" class="animable"></path><circle cx="411.65" cy="134.23" r="25.75" style="fill: rgb(230, 230, 230); transform-origin: 411.65px 134.23px;" id="elt3fiq2q1zd" class="animable"></circle><path d="M384.38,152.78c-4.08,0-6.61-1-7.53-3.12a1.51,1.51,0,0,1,.77-2,1.49,1.49,0,0,1,2,.76c.4.9,3.12,2.06,10.81.74a109.43,109.43,0,0,0,24.37-7.91C434.34,132.6,445,122.89,443.71,120a1.5,1.5,0,0,1,2.75-1.21c2.84,6.42-13.18,17.54-30.47,25.2a113,113,0,0,1-25.08,8.13A39.09,39.09,0,0,1,384.38,152.78Z" style="fill: rgb(245, 245, 245); transform-origin: 411.753px 135.338px;" id="elj33g5dszja" class="animable"></path><path d="M371.89,72.94l.85,1.71a.68.68,0,0,0,.51.37l1.89.28a.68.68,0,0,1,.38,1.16l-1.37,1.34a.66.66,0,0,0-.19.6l.32,1.88a.68.68,0,0,1-1,.72l-1.69-.89a.72.72,0,0,0-.64,0l-1.69.89a.68.68,0,0,1-1-.72l.32-1.88a.64.64,0,0,0-.2-.6L367,76.46a.68.68,0,0,1,.38-1.16l1.89-.28a.68.68,0,0,0,.51-.37l.85-1.71A.68.68,0,0,1,371.89,72.94Z" style="fill: rgb(245, 245, 245); transform-origin: 371.26px 76.8012px;" id="elz9abw5rdja8" class="animable"></path><path d="M60.13,241.19,61,242.9a.71.71,0,0,0,.51.38l1.89.27a.69.69,0,0,1,.38,1.17l-1.37,1.33a.67.67,0,0,0-.19.6l.32,1.89a.68.68,0,0,1-1,.72l-1.69-.89a.66.66,0,0,0-.64,0l-1.69.89a.68.68,0,0,1-1-.72l.32-1.89a.67.67,0,0,0-.19-.6l-1.37-1.33a.69.69,0,0,1,.38-1.17l1.89-.27a.71.71,0,0,0,.51-.38l.85-1.71A.68.68,0,0,1,60.13,241.19Z" style="fill: rgb(230, 230, 230); transform-origin: 59.53px 245.078px;" id="el7jcbvvy0kme" class="animable"></path><path d="M303.57,315.8l.84,1.71a.67.67,0,0,0,.52.37l1.89.28a.68.68,0,0,1,.37,1.16l-1.36,1.34a.67.67,0,0,0-.2.6l.32,1.89a.68.68,0,0,1-1,.72l-1.69-.89a.64.64,0,0,0-.63,0l-1.7.89a.69.69,0,0,1-1-.72l.33-1.89a.7.7,0,0,0-.2-.6l-1.37-1.34a.68.68,0,0,1,.38-1.16l1.89-.28a.69.69,0,0,0,.52-.37l.84-1.71A.69.69,0,0,1,303.57,315.8Z" style="fill: rgb(230, 230, 230); transform-origin: 302.941px 319.679px;" id="el0smp7hzy0b1" class="animable"></path><path d="M291.44,33.93l.51,1a.4.4,0,0,0,.3.22l1.13.16a.41.41,0,0,1,.23.7l-.82.8a.4.4,0,0,0-.11.36l.19,1.12a.4.4,0,0,1-.59.43l-1-.53a.42.42,0,0,0-.38,0l-1,.53a.41.41,0,0,1-.59-.43l.2-1.12a.43.43,0,0,0-.12-.36l-.82-.8a.41.41,0,0,1,.23-.7l1.13-.16a.4.4,0,0,0,.3-.22l.51-1A.41.41,0,0,1,291.44,33.93Z" style="fill: rgb(230, 230, 230); transform-origin: 291.09px 36.2532px;" id="el84ayh692s2" class="animable"></path><path d="M113.62,210.8l.51,1a.4.4,0,0,0,.3.22l1.13.17a.4.4,0,0,1,.23.69l-.82.8a.4.4,0,0,0-.11.36l.19,1.13a.41.41,0,0,1-.59.43l-1-.53a.37.37,0,0,0-.38,0l-1,.53a.41.41,0,0,1-.6-.43l.2-1.13a.43.43,0,0,0-.12-.36l-.82-.8a.4.4,0,0,1,.23-.69l1.13-.17a.4.4,0,0,0,.3-.22l.51-1A.4.4,0,0,1,113.62,210.8Z" style="fill: rgb(245, 245, 245); transform-origin: 113.265px 213.117px;" id="elneixgq3wnmh" class="animable"></path><path d="M62.55,306.31l.5,1a.41.41,0,0,0,.31.23l1.13.16a.41.41,0,0,1,.22.7l-.81.8a.39.39,0,0,0-.12.36L64,310.7a.4.4,0,0,1-.59.43l-1-.53a.42.42,0,0,0-.38,0l-1,.53a.4.4,0,0,1-.59-.43l.19-1.12a.39.39,0,0,0-.12-.36l-.82-.8a.41.41,0,0,1,.23-.7l1.13-.16a.43.43,0,0,0,.31-.23l.5-1A.42.42,0,0,1,62.55,306.31Z" style="fill: rgb(245, 245, 245); transform-origin: 62.2007px 308.661px;" id="elu856mm1h9io" class="animable"></path><path d="M418.78,306.46l.51,1a.4.4,0,0,0,.31.22l1.13.16a.41.41,0,0,1,.22.7l-.81.8a.4.4,0,0,0-.12.36l.19,1.12a.4.4,0,0,1-.59.43l-1-.53a.42.42,0,0,0-.38,0l-1,.53a.41.41,0,0,1-.6-.43l.2-1.12a.4.4,0,0,0-.12-.36l-.82-.8a.41.41,0,0,1,.23-.7l1.13-.16a.42.42,0,0,0,.31-.22l.5-1A.41.41,0,0,1,418.78,306.46Z" style="fill: rgb(230, 230, 230); transform-origin: 418.426px 308.779px;" id="elsivirbbxago" class="animable"></path><circle cx="171.99" cy="64.81" r="1.33" style="fill: rgb(230, 230, 230); transform-origin: 171.99px 64.81px;" id="elgryepbepmr" class="animable"></circle><path d="M310.18,81.08a1.33,1.33,0,1,1-1.33-1.32A1.33,1.33,0,0,1,310.18,81.08Z" style="fill: rgb(245, 245, 245); transform-origin: 308.85px 81.09px;" id="elvod56cvhktm" class="animable"></path><circle cx="165.18" cy="185.33" r="1.33" style="fill: rgb(245, 245, 245); transform-origin: 165.18px 185.33px;" id="eljlwdnmfarne" class="animable"></circle><path d="M122.83,285.26a1.33,1.33,0,1,1-1.32-1.32A1.32,1.32,0,0,1,122.83,285.26Z" style="fill: rgb(245, 245, 245); transform-origin: 121.5px 285.27px;" id="elkxhllfi27h" class="animable"></path><circle cx="400.33" cy="205.33" r="1.33" style="fill: rgb(230, 230, 230); transform-origin: 400.33px 205.33px;" id="elucaie2hqglm" class="animable"></circle></g><g id="freepik--Shadow--inject-77" class="animable animator-hidden" style="transform-origin: 250px 416.24px;"><ellipse cx="250" cy="416.24" rx="193.89" ry="11.32" style="fill: rgb(245, 245, 245); transform-origin: 250px 416.24px;" id="ell4fk40xekjj" class="animable"></ellipse></g><g id="freepik--Stars--inject-77" class="animable" style="transform-origin: 263.174px 169.166px;"><path d="M163.46,119.73a1.66,1.66,0,0,1-1.63-1.94l.55-3.17a.68.68,0,0,0-.19-.58l-2.31-2.25a1.65,1.65,0,0,1,.92-2.82l3.19-.46a.67.67,0,0,0,.49-.36l1.42-2.89a1.66,1.66,0,0,1,3,0l1.42,2.89a.67.67,0,0,0,.5.36L174,109a1.65,1.65,0,0,1,.92,2.82L172.58,114a.65.65,0,0,0-.18.58l.54,3.17a1.65,1.65,0,0,1-2.4,1.74l-2.85-1.5a.63.63,0,0,0-.61,0l-2.85,1.49A1.64,1.64,0,0,1,163.46,119.73Zm3.93-14.39a.63.63,0,0,0-.59.36l-1.43,2.89a1.65,1.65,0,0,1-1.24.91l-3.19.46a.65.65,0,0,0-.36,1.11l2.31,2.25a1.66,1.66,0,0,1,.47,1.47l-.54,3.17a.65.65,0,0,0,.94.69l2.86-1.5a1.65,1.65,0,0,1,1.53,0l2.86,1.5A.65.65,0,0,0,172,118l-.54-3.17a1.69,1.69,0,0,1,.47-1.47l2.31-2.25a.64.64,0,0,0,.17-.67.65.65,0,0,0-.53-.44l-3.19-.46a1.65,1.65,0,0,1-1.24-.91L168,105.7A.63.63,0,0,0,167.39,105.34Z" style="fill: #4F6B96; transform-origin: 167.4px 112.021px;" id="el4ah8hatjms" class="animable"></path><g id="elmc54usv9rwf"><path d="M163.46,119.73a1.66,1.66,0,0,1-1.63-1.94l.55-3.17a.68.68,0,0,0-.19-.58l-2.31-2.25a1.65,1.65,0,0,1,.92-2.82l3.19-.46a.67.67,0,0,0,.49-.36l1.42-2.89a1.66,1.66,0,0,1,3,0l1.42,2.89a.67.67,0,0,0,.5.36L174,109a1.65,1.65,0,0,1,.92,2.82L172.58,114a.65.65,0,0,0-.18.58l.54,3.17a1.65,1.65,0,0,1-2.4,1.74l-2.85-1.5a.63.63,0,0,0-.61,0l-2.85,1.49A1.64,1.64,0,0,1,163.46,119.73Zm3.93-14.39a.63.63,0,0,0-.59.36l-1.43,2.89a1.65,1.65,0,0,1-1.24.91l-3.19.46a.65.65,0,0,0-.36,1.11l2.31,2.25a1.66,1.66,0,0,1,.47,1.47l-.54,3.17a.65.65,0,0,0,.94.69l2.86-1.5a1.65,1.65,0,0,1,1.53,0l2.86,1.5A.65.65,0,0,0,172,118l-.54-3.17a1.69,1.69,0,0,1,.47-1.47l2.31-2.25a.64.64,0,0,0,.17-.67.65.65,0,0,0-.53-.44l-3.19-.46a1.65,1.65,0,0,1-1.24-.91L168,105.7A.63.63,0,0,0,167.39,105.34Z" style="fill: rgb(255, 255, 255); opacity: 0.5; transform-origin: 167.4px 112.021px;" class="animable" id="elposs9f41ol7"></path></g><path d="M220.65,90.49l.29,6.17a2.19,2.19,0,0,0,1,1.77l5.24,3.26a2.21,2.21,0,0,1-.39,3.94l-5.77,2.18a2.18,2.18,0,0,0-1.36,1.53l-1.48,6a2.21,2.21,0,0,1-3.87.86l-3.86-4.82a2.16,2.16,0,0,0-1.88-.82l-6.15.44a2.21,2.21,0,0,1-2-3.41l3.39-5.16a2.18,2.18,0,0,0,.2-2l-2.32-5.72a2.21,2.21,0,0,1,2.62-3l5.95,1.63a2.21,2.21,0,0,0,2-.44l4.72-4A2.21,2.21,0,0,1,220.65,90.49Z" style="fill: #4F6B96; transform-origin: 214.14px 102.687px;" id="el9ixa7rf9umc" class="animable"></path><g id="el7ms9g0jfp2l"><path d="M220.65,90.49l.29,6.17a2.19,2.19,0,0,0,1,1.77l5.24,3.26a2.21,2.21,0,0,1-.39,3.94l-5.77,2.18a2.18,2.18,0,0,0-1.36,1.53l-1.48,6a2.21,2.21,0,0,1-3.87.86l-3.86-4.82a2.16,2.16,0,0,0-1.88-.82l-6.15.44a2.21,2.21,0,0,1-2-3.41l3.39-5.16a2.18,2.18,0,0,0,.2-2l-2.32-5.72a2.21,2.21,0,0,1,2.62-3l5.95,1.63a2.21,2.21,0,0,0,2-.44l4.72-4A2.21,2.21,0,0,1,220.65,90.49Z" style="opacity: 0.2; transform-origin: 214.14px 102.687px;" class="animable" id="elbiz31rfm74"></path></g><path d="M348.13,196.88a2.74,2.74,0,0,1-2.7-2.9l.42-6.16a1.7,1.7,0,0,0-.64-1.45l-4.83-3.84a2.71,2.71,0,0,1,1-4.75l6-1.5a1.66,1.66,0,0,0,1.18-1.06l2.16-5.78a2.71,2.71,0,0,1,4.83-.49l3.28,5.23a1.69,1.69,0,0,0,1.37.8l6.17.27a2.71,2.71,0,0,1,2,4.44l-4,4.73A1.71,1.71,0,0,0,364,186l1.65,5.95a2.69,2.69,0,0,1-.8,2.74,2.72,2.72,0,0,1-2.82.5l-5.72-2.31a1.71,1.71,0,0,0-1.58.16l-5.14,3.41A2.75,2.75,0,0,1,348.13,196.88Zm5.15-28.2h-.18a1.67,1.67,0,0,0-1.43,1.1l-2.16,5.78a2.67,2.67,0,0,1-1.88,1.68l-6,1.5a1.71,1.71,0,0,0-.65,3l4.83,3.84a2.69,2.69,0,0,1,1,2.3l-.42,6.16a1.67,1.67,0,0,0,.84,1.59,1.7,1.7,0,0,0,1.8,0l5.15-3.41a2.71,2.71,0,0,1,2.5-.26l5.73,2.31a1.71,1.71,0,0,0,2.28-2l-1.65-5.95a2.7,2.7,0,0,1,.53-2.46l4-4.73a1.72,1.72,0,0,0-1.24-2.81l-6.16-.26a2.72,2.72,0,0,1-2.18-1.27l-3.27-5.23A1.68,1.68,0,0,0,353.28,168.68Z" style="fill: #4F6B96; transform-origin: 354.172px 182.282px;" id="el50uttw08hp9" class="animable"></path><g id="elh2kq8758mi8"><path d="M348.13,196.88a2.74,2.74,0,0,1-2.7-2.9l.42-6.16a1.7,1.7,0,0,0-.64-1.45l-4.83-3.84a2.71,2.71,0,0,1,1-4.75l6-1.5a1.66,1.66,0,0,0,1.18-1.06l2.16-5.78a2.71,2.71,0,0,1,4.83-.49l3.28,5.23a1.69,1.69,0,0,0,1.37.8l6.17.27a2.71,2.71,0,0,1,2,4.44l-4,4.73A1.71,1.71,0,0,0,364,186l1.65,5.95a2.69,2.69,0,0,1-.8,2.74,2.72,2.72,0,0,1-2.82.5l-5.72-2.31a1.71,1.71,0,0,0-1.58.16l-5.14,3.41A2.75,2.75,0,0,1,348.13,196.88Zm5.15-28.2h-.18a1.67,1.67,0,0,0-1.43,1.1l-2.16,5.78a2.67,2.67,0,0,1-1.88,1.68l-6,1.5a1.71,1.71,0,0,0-.65,3l4.83,3.84a2.69,2.69,0,0,1,1,2.3l-.42,6.16a1.67,1.67,0,0,0,.84,1.59,1.7,1.7,0,0,0,1.8,0l5.15-3.41a2.71,2.71,0,0,1,2.5-.26l5.73,2.31a1.71,1.71,0,0,0,2.28-2l-1.65-5.95a2.7,2.7,0,0,1,.53-2.46l4-4.73a1.72,1.72,0,0,0-1.24-2.81l-6.16-.26a2.72,2.72,0,0,1-2.18-1.27l-3.27-5.23A1.68,1.68,0,0,0,353.28,168.68Z" style="fill: rgb(255, 255, 255); opacity: 0.5; transform-origin: 354.172px 182.282px;" class="animable" id="eljoycs65kzwa"></path></g><path d="M352.79,237.56l-.82,3.08a1.11,1.11,0,0,0,.24,1l2.07,2.42a1.14,1.14,0,0,1-.81,1.88l-3.18.17a1.16,1.16,0,0,0-.91.55l-1.66,2.72a1.15,1.15,0,0,1-2-.19l-1.14-3a1.17,1.17,0,0,0-.8-.7l-3.1-.74a1.14,1.14,0,0,1-.46-2l2.48-2a1.14,1.14,0,0,0,.41-1l-.25-3.18a1.14,1.14,0,0,1,1.75-1l2.68,1.73a1.17,1.17,0,0,0,1.06.1l2.94-1.23A1.15,1.15,0,0,1,352.79,237.56Z" style="fill: #4F6B96; transform-origin: 347.174px 242.635px;" id="el4s78t0euc7w" class="animable"></path><g id="el25sdkk58md2"><path d="M352.79,237.56l-.82,3.08a1.11,1.11,0,0,0,.24,1l2.07,2.42a1.14,1.14,0,0,1-.81,1.88l-3.18.17a1.16,1.16,0,0,0-.91.55l-1.66,2.72a1.15,1.15,0,0,1-2-.19l-1.14-3a1.17,1.17,0,0,0-.8-.7l-3.1-.74a1.14,1.14,0,0,1-.46-2l2.48-2a1.14,1.14,0,0,0,.41-1l-.25-3.18a1.14,1.14,0,0,1,1.75-1l2.68,1.73a1.17,1.17,0,0,0,1.06.1l2.94-1.23A1.15,1.15,0,0,1,352.79,237.56Z" style="opacity: 0.2; transform-origin: 347.174px 242.635px;" class="animable" id="elsyajd0e18xa"></path></g><path d="M166.19,241.59l-.56,2.09a.8.8,0,0,0,.16.7L167.2,246a.78.78,0,0,1-.55,1.28l-2.16.12a.75.75,0,0,0-.61.37l-1.13,1.84a.77.77,0,0,1-1.38-.12l-.78-2a.77.77,0,0,0-.54-.48l-2.1-.5a.77.77,0,0,1-.31-1.35l1.67-1.36a.77.77,0,0,0,.29-.66l-.18-2.16a.78.78,0,0,1,1.2-.71l1.81,1.17a.77.77,0,0,0,.72.07l2-.83A.77.77,0,0,1,166.19,241.59Z" style="fill: #4F6B96; transform-origin: 162.368px 245.065px;" id="elzie20uju9w" class="animable"></path><g id="elww4s3mxvi7"><path d="M166.19,241.59l-.56,2.09a.8.8,0,0,0,.16.7L167.2,246a.78.78,0,0,1-.55,1.28l-2.16.12a.75.75,0,0,0-.61.37l-1.13,1.84a.77.77,0,0,1-1.38-.12l-.78-2a.77.77,0,0,0-.54-.48l-2.1-.5a.77.77,0,0,1-.31-1.35l1.67-1.36a.77.77,0,0,0,.29-.66l-.18-2.16a.78.78,0,0,1,1.2-.71l1.81,1.17a.77.77,0,0,0,.72.07l2-.83A.77.77,0,0,1,166.19,241.59Z" style="opacity: 0.2; transform-origin: 162.368px 245.065px;" class="animable" id="elfe497dwv31l"></path></g></g><g id="freepik--Character--inject-77" class="animable" style="transform-origin: 324.881px 228.679px;"><path d="M354.86,287.21c-25.09,0-51.59-10.26-68.16-27.79-16.72-17.7-21.2-40.08-12.61-63l3.74,1.4c-8,21.43-3.84,42.33,11.78,58.86,21.09,22.32,59,32.31,88.15,23.23,32.28-10,44.8-33.82,56.91-56.82C448.23,197.33,461,173,500,173v4c-36.54,0-48.24,22.22-61.79,47.95-11.91,22.61-25.4,48.24-59.26,58.77A81.1,81.1,0,0,1,354.86,287.21Z" style="fill: #4F6B96; transform-origin: 384.913px 230.106px;" id="el3pscz18h6av" class="animable"></path><g id="el6d68rhc3xyu"><path d="M354.86,287.21c-25.09,0-51.59-10.26-68.16-27.79-16.72-17.7-21.2-40.08-12.61-63l3.74,1.4c-8,21.43-3.84,42.33,11.78,58.86,21.09,22.32,59,32.31,88.15,23.23,32.28-10,44.8-33.82,56.91-56.82C448.23,197.33,461,173,500,173v4c-36.54,0-48.24,22.22-61.79,47.95-11.91,22.61-25.4,48.24-59.26,58.77A81.1,81.1,0,0,1,354.86,287.21Z" style="fill: rgb(255, 255, 255); opacity: 0.5; transform-origin: 384.913px 230.106px;" class="animable" id="eleiz87ij6tth"></path></g><path d="M267.2,169.47l-1.35.53-1.25.47-2.5.85c-1.67.55-3.35,1-5,1.49a90.41,90.41,0,0,1-10.48,2.13,61.84,61.84,0,0,1-11.39.62,39.43,39.43,0,0,1-6.37-.84,37,37,0,0,1-6.23-2c-7.81-3.45-13.43-8.9-17.87-14.59a67.08,67.08,0,0,1-5.82-9c-.83-1.56-1.62-3.11-2.33-4.71-.36-.8-.7-1.61-1-2.42s-.6-1.61-.95-2.58l8.88-4.39,1.35,1.7c.48.59.95,1.18,1.45,1.76,1,1.17,2,2.32,3,3.43a77,77,0,0,0,6.29,6.24,47.5,47.5,0,0,0,6.65,5,36,36,0,0,0,3.36,1.83,23.45,23.45,0,0,0,3.32,1.21,15.73,15.73,0,0,0,6.42.56,54.42,54.42,0,0,0,7.94-1.21c2.78-.6,5.63-1.34,8.47-2.18,1.43-.39,2.85-.84,4.27-1.28l2.5-.91Z" style="fill: #4F6B96; transform-origin: 230.93px 155.317px;" id="el3qr37gkrz5c" class="animable"></path><g id="elws4i72nbj0e"><path d="M267.2,169.47l-1.35.53-1.25.47-2.5.85c-1.67.55-3.35,1-5,1.49a90.41,90.41,0,0,1-10.48,2.13,61.84,61.84,0,0,1-11.39.62,39.43,39.43,0,0,1-6.37-.84,37,37,0,0,1-6.23-2c-7.81-3.45-13.43-8.9-17.87-14.59a67.08,67.08,0,0,1-5.82-9c-.83-1.56-1.62-3.11-2.33-4.71-.36-.8-.7-1.61-1-2.42s-.6-1.61-.95-2.58l8.88-4.39,1.35,1.7c.48.59.95,1.18,1.45,1.76,1,1.17,2,2.32,3,3.43a77,77,0,0,0,6.29,6.24,47.5,47.5,0,0,0,6.65,5,36,36,0,0,0,3.36,1.83,23.45,23.45,0,0,0,3.32,1.21,15.73,15.73,0,0,0,6.42.56,54.42,54.42,0,0,0,7.94-1.21c2.78-.6,5.63-1.34,8.47-2.18,1.43-.39,2.85-.84,4.27-1.28l2.5-.91Z" style="fill: rgb(255, 255, 255); opacity: 0.6; transform-origin: 230.93px 155.317px;" class="animable" id="el4l18gvcx4mv"></path></g><path d="M258.46,151.18S240.68,168.65,234,211.64l42.64,16.84c2.56-5.65,9-34.52,26-59.17a67.82,67.82,0,0,0-13.06-8.08,193.37,193.37,0,0,0-18.13-7.16A97.09,97.09,0,0,0,258.46,151.18Z" style="fill: #4F6B96; transform-origin: 268.32px 189.83px;" id="ellst82a1yk8p" class="animable"></path><g id="eljetpopye"><path d="M258.46,151.18S240.68,168.65,234,211.64l42.64,16.84c2.56-5.65,9-34.52,26-59.17a67.82,67.82,0,0,0-13.06-8.08,193.37,193.37,0,0,0-18.13-7.16A97.09,97.09,0,0,0,258.46,151.18Z" style="fill: rgb(255, 255, 255); opacity: 0.6; transform-origin: 268.32px 189.83px;" class="animable" id="elve6qy2r4itf"></path></g><path d="M292.67,141.67c-3,4.74-7.76,13.74-5.52,18.59,0,0-1.23,2.13-9.9-1.32-7.08-2.82-6.05-5-6.05-5,6.26.89,7.79-3.41,8.37-7.8Z" style="fill: rgb(228, 137, 123); transform-origin: 281.909px 151.29px;" id="elrcfmjge94ml" class="animable"></path><path d="M287.33,143.51l-7.75,2.65a18.49,18.49,0,0,1-.63,3c2.31.54,6.26-.67,7.4-2.87A8.32,8.32,0,0,0,287.33,143.51Z" style="fill: rgb(206, 111, 100); transform-origin: 283.14px 146.399px;" id="eloy0kulwfijj" class="animable"></path><path d="M288,117c-4-.58-12,8.52-9.22,13S295.55,118.14,288,117Z" style="fill: rgb(38, 50, 56); transform-origin: 284.208px 123.875px;" id="elxajxzumvvf" class="animable"></path><path d="M296.55,136.19c-4.67,5.86-7.1,9.52-12.39,10.49-8,1.47-13.55-6.63-10.73-13.76,2.54-6.42,9.75-14.92,17.45-13.15A10.21,10.21,0,0,1,296.55,136.19Z" style="fill: rgb(228, 137, 123); transform-origin: 285.769px 133.194px;" id="el22ca918c8oq" class="animable"></path><path d="M291.92,141.89c-4.16-.94-1.51-16.68,9.24-13.78C314.18,131.62,298.65,143.4,291.92,141.89Z" style="fill: rgb(38, 50, 56); transform-origin: 298.126px 134.888px;" id="el3619von0rhu" class="animable"></path><path d="M301.47,132.23c-5-1.85-18.71-8.84-16.2-17.29,1.23-4.11,9.08-3.46,14.53-.55-8.85.32-4.41,4.53,1.38,6.35C310.6,123.7,308.16,134.73,301.47,132.23Z" style="fill: rgb(38, 50, 56); transform-origin: 296.179px 122.314px;" id="el1ey9ahzlq8t" class="animable"></path><path d="M302.76,130.1s5.32-.7,4.21,4.13A6.05,6.05,0,0,0,302.76,130.1Z" style="fill: rgb(38, 50, 56); transform-origin: 304.941px 132.147px;" id="elpiqj2rb6tus" class="animable"></path><path d="M303,129.66s3.25,4.26,5.9.08A6.07,6.07,0,0,1,303,129.66Z" style="fill: rgb(38, 50, 56); transform-origin: 305.95px 130.619px;" id="elsbp40gwimyn" class="animable"></path><path d="M294.58,144.87a7.09,7.09,0,0,1-5.43,0c-2.31-1-1.92-3.39,0-4.76,1.74-1.23,5-2.21,6.72-.46S296.7,144,294.58,144.87Z" style="fill: rgb(228, 137, 123); transform-origin: 292.169px 142.056px;" id="el4erjy6i4tap" class="animable"></path><path d="M234,211.64s-33.48,25.21-43.92,45.72C179.25,278.71,169.05,322,169.05,322l15.87,5.76s13.27-36.75,25.33-56.93c13.15-22,34.94-27.05,51.81-48.16Z" style="fill: #4F6B96; transform-origin: 215.555px 269.7px;" id="eluccoq2djpq" class="animable"></path><g id="elmxxbyopcszk"><path d="M234,211.64s-33.48,25.21-43.92,45.72C179.25,278.71,169.05,322,169.05,322l15.87,5.76s13.27-36.75,25.33-56.93c13.15-22,34.94-27.05,51.81-48.16Z" style="fill: rgb(255, 255, 255); opacity: 0.6; transform-origin: 215.555px 269.7px;" class="animable" id="el51dtwn06xxe"></path></g><path d="M249.16,217.61s-22,35.86-25,57.91c-3.25,24.14,4.47,69.56,4.47,69.56l15.8-3.79s-3.78-32.93,1.72-55.94c6-25,23.54-39.29,30.49-56.87Z" style="fill: #4F6B96; transform-origin: 250.001px 281.345px;" id="elg8pu3ra06vp" class="animable"></path><g id="elt6h2xlimazg"><path d="M249.16,217.61s-22,35.86-25,57.91c-3.25,24.14,4.47,69.56,4.47,69.56l15.8-3.79s-3.78-32.93,1.72-55.94c6-25,23.54-39.29,30.49-56.87Z" style="fill: rgb(255, 255, 255); opacity: 0.6; transform-origin: 250.001px 281.345px;" class="animable" id="elezzj14xibpl"></path></g><path d="M286.07,131.39c-.35.5-.9.72-1.22.49s-.31-.81,0-1.31.9-.72,1.22-.49S286.42,130.9,286.07,131.39Z" style="fill: rgb(38, 50, 56); transform-origin: 285.468px 130.98px;" id="ellhxvbi36jti" class="animable"></path><path d="M280.44,127.44c-.35.5-.9.72-1.22.49s-.31-.81,0-1.31.9-.72,1.22-.49S280.79,127,280.44,127.44Z" style="fill: rgb(38, 50, 56); transform-origin: 279.838px 127.03px;" id="elx24w03aanq9" class="animable"></path><path d="M282.06,129a21.74,21.74,0,0,1-5.37,2.59c.3,1.44,2.06,2.12,2.06,2.12Z" style="fill: rgb(222, 87, 83); transform-origin: 279.375px 131.355px;" id="els8ywvo8eqk" class="animable"></path><path d="M282.33,137.06a5.31,5.31,0,0,1-3.09-1,.18.18,0,1,1,.21-.29,4.81,4.81,0,0,0,4.3.71.19.19,0,0,1,.23.1.18.18,0,0,1-.1.23A4.36,4.36,0,0,1,282.33,137.06Z" style="fill: rgb(38, 50, 56); transform-origin: 281.571px 136.392px;" id="elx9lqxmf8uzb" class="animable"></path><path d="M289.25,130.83a.36.36,0,0,1-.36-.34,2.84,2.84,0,0,0-1.19-2.29.36.36,0,0,1,.37-.62,3.57,3.57,0,0,1,1.53,2.88.34.34,0,0,1-.34.37Z" style="fill: rgb(38, 50, 56); transform-origin: 288.563px 129.18px;" id="eluvkf0bveoxq" class="animable"></path><path d="M279.54,123.85a.37.37,0,0,1-.32-.19.36.36,0,0,1,.14-.48,3.57,3.57,0,0,1,3.26-.18.36.36,0,0,1,.15.49.36.36,0,0,1-.48.15,2.83,2.83,0,0,0-2.58.16A.34.34,0,0,1,279.54,123.85Z" style="fill: rgb(38, 50, 56); transform-origin: 280.996px 123.27px;" id="el9t6w5qy75i" class="animable"></path><path d="M302.68,169.31l.66.65.75,1,1.43,2c.91,1.34,1.8,2.69,2.64,4.07s1.65,2.79,2.43,4.23,1.5,2.9,2.21,4.39a72.64,72.64,0,0,1,3.66,9.43c.26.81.49,1.66.7,2.52l.33,1.28.08.32.1.46.2.91a26.64,26.64,0,0,1,.39,6.52,46.89,46.89,0,0,1-2,10.53,79.3,79.3,0,0,1-3.41,9.15c-1.28,2.92-2.7,5.72-4.21,8.46s-3.11,5.35-5,8l-8.88-4.4c1.52-5.49,3.1-11.18,4.29-16.65.56-2.75,1.11-5.46,1.42-8.07.16-1.32.27-2.58.36-3.8a29,29,0,0,0,0-3.39,10.45,10.45,0,0,0-.48-2.37l-.07-.17,0-.09-.09-.2-.36-.85c-.24-.56-.48-1.13-.77-1.7a78,78,0,0,0-3.65-6.9c-.66-1.16-1.35-2.31-2.08-3.46s-1.43-2.3-2.19-3.44-1.5-2.28-2.26-3.41l-2.18-3.22Z" style="fill: #4F6B96; transform-origin: 302.507px 206.27px;" id="elsnutyl238y" class="animable"></path><g id="el0v5pngwg3v6r"><path d="M302.68,169.31l.66.65.75,1,1.43,2c.91,1.34,1.8,2.69,2.64,4.07s1.65,2.79,2.43,4.23,1.5,2.9,2.21,4.39a72.64,72.64,0,0,1,3.66,9.43c.26.81.49,1.66.7,2.52l.33,1.28.08.32.1.46.2.91a26.64,26.64,0,0,1,.39,6.52,46.89,46.89,0,0,1-2,10.53,79.3,79.3,0,0,1-3.41,9.15c-1.28,2.92-2.7,5.72-4.21,8.46s-3.11,5.35-5,8l-8.88-4.4c1.52-5.49,3.1-11.18,4.29-16.65.56-2.75,1.11-5.46,1.42-8.07.16-1.32.27-2.58.36-3.8a29,29,0,0,0,0-3.39,10.45,10.45,0,0,0-.48-2.37l-.07-.17,0-.09-.09-.2-.36-.85c-.24-.56-.48-1.13-.77-1.7a78,78,0,0,0-3.65-6.9c-.66-1.16-1.35-2.31-2.08-3.46s-1.43-2.3-2.19-3.44-1.5-2.28-2.26-3.41l-2.18-3.22Z" style="fill: rgb(255, 255, 255); opacity: 0.6; transform-origin: 302.507px 206.27px;" class="animable" id="el1nx88r9tzn5"></path></g><g id="el139cjm9oxkiq"><circle cx="287.77" cy="134.21" r="28.57" style="fill: #4F6B96; opacity: 0.1; transform-origin: 287.77px 134.21px; transform: rotate(-23.23deg);" class="animable" id="el2c295yrmjlk"></circle></g><path d="M287.78,163.79a29.7,29.7,0,0,1-22.66-10.56,1,1,0,0,1,1.54-1.28,27.62,27.62,0,0,0,25.4,9.5,1,1,0,0,1,.31,2A29.39,29.39,0,0,1,287.78,163.79Z" style="fill: rgb(38, 50, 56); transform-origin: 279.058px 157.689px;" id="elsm7e8li2akl" class="animable"></path><polygon points="246.54 344.52 227.17 349.49 225.74 330.47 244.61 328.1 246.54 344.52" style="fill: #4F6B96; transform-origin: 236.14px 338.795px;" id="elt7wrt5o1xyl" class="animable"></polygon><g id="el4xynricndgn"><polygon points="246.54 344.52 227.17 349.49 225.74 330.47 244.61 328.1 246.54 344.52" style="opacity: 0.2; transform-origin: 236.14px 338.795px;" class="animable" id="el6k0t8qufvk"></polygon></g><path d="M228.17,345.49l16.56-3.7a1.08,1.08,0,0,1,1.18.64l4.34,10.3a1.81,1.81,0,0,1-1.38,2.47c-4.75.78-7.1.92-13.06,2-3.67.67-11.17,2.43-16.23,3.35s-6.5-3.68-4.65-4.8c6.79-4.14,8.93-5.95,11.42-9.17A3,3,0,0,1,228.17,345.49Z" style="fill: #4F6B96; transform-origin: 232.271px 351.222px;" id="eliyddiw4s06g" class="animable"></path><g id="el5sx8p62izuk"><path d="M228.17,345.49l16.56-3.7a1.08,1.08,0,0,1,1.18.64l4.34,10.3a1.81,1.81,0,0,1-1.38,2.47c-4.75.78-7.1.92-13.06,2-3.67.67-11.17,2.43-16.23,3.35s-6.5-3.68-4.65-4.8c6.79-4.14,8.93-5.95,11.42-9.17A3,3,0,0,1,228.17,345.49Z" style="opacity: 0.2; transform-origin: 232.271px 351.222px;" class="animable" id="elbspraypx9f8"></path></g><polygon points="184.62 330.73 165.18 326.01 171.62 308.63 190.63 315.33 184.62 330.73" style="fill: #4F6B96; transform-origin: 177.905px 319.68px;" id="ele7ltdxusck7" class="animable"></polygon><g id="el1tyd9bgby91i"><polygon points="184.62 330.73 165.18 326.01 171.62 308.63 190.63 315.33 184.62 330.73" style="opacity: 0.2; transform-origin: 177.905px 319.68px;" class="animable" id="elo6baqa6jmas"></polygon></g><path d="M168,323l16.35,4.53a1.06,1.06,0,0,1,.74,1.11l-1,11.13a1.8,1.8,0,0,1-2.38,1.53c-4.56-1.54-6.7-2.52-12.48-4.37-3.55-1.13-11-3.1-15.89-4.67s-4-6.3-1.85-6.42c7.94-.46,10.68-1.05,14.39-2.72A3,3,0,0,1,168,323Z" style="fill: #4F6B96; transform-origin: 167.429px 332.13px;" id="el8o6165qq4no" class="animable"></path><g id="elgvmgfra7uj"><path d="M168,323l16.35,4.53a1.06,1.06,0,0,1,.74,1.11l-1,11.13a1.8,1.8,0,0,1-2.38,1.53c-4.56-1.54-6.7-2.52-12.48-4.37-3.55-1.13-11-3.1-15.89-4.67s-4-6.3-1.85-6.42c7.94-.46,10.68-1.05,14.39-2.72A3,3,0,0,1,168,323Z" style="opacity: 0.2; transform-origin: 167.429px 332.13px;" class="animable" id="elf7235yxlu8k"></path></g><path d="M277,231.54c-28.56-7.57-45.39-18-46.09-18.43l3.18-5.09c.16.11,16.83,10.4,44.45,17.72Z" style="fill: #4F6B96; transform-origin: 254.725px 219.78px;" id="elrvizdxr70ho" class="animable"></path><g id="el0i6x51teo9x4"><path d="M277,231.54c-28.56-7.57-45.39-18-46.09-18.43l3.18-5.09c.16.11,16.83,10.4,44.45,17.72Z" style="opacity: 0.2; transform-origin: 254.725px 219.78px;" class="animable" id="el0ogvbhdj491"></path></g><path d="M191.45,268.16a3.65,3.65,0,0,1-1.63-.37c-1.45-.74-2.32-2.41-2.44-4.71A16.29,16.29,0,0,1,194.06,250c1.92-1.25,3.79-1.53,5.24-.79s2.33,2.41,2.45,4.7a15.14,15.14,0,0,1-1.78,7.37h0a14.61,14.61,0,0,1-5,5.77A6.81,6.81,0,0,1,191.45,268.16ZM197.56,249a6.29,6.29,0,0,0-3.36,1.16,16.08,16.08,0,0,0-6.57,12.91c.11,2.2.93,3.8,2.31,4.5s3,.36,4.87-.78a14.37,14.37,0,0,0,4.94-5.68,14.83,14.83,0,0,0,1.75-7.23c-.12-2.2-.94-3.8-2.31-4.5A3.59,3.59,0,0,0,197.56,249Z" style="fill: #4F6B96; transform-origin: 194.566px 258.483px;" id="eltkth3ei2plk" class="animable"></path><g id="elyj4nqur11kr"><path d="M191.45,268.16a3.65,3.65,0,0,1-1.63-.37c-1.45-.74-2.32-2.41-2.44-4.71A16.29,16.29,0,0,1,194.06,250c1.92-1.25,3.79-1.53,5.24-.79s2.33,2.41,2.45,4.7a15.14,15.14,0,0,1-1.78,7.37h0a14.61,14.61,0,0,1-5,5.77A6.81,6.81,0,0,1,191.45,268.16ZM197.56,249a6.29,6.29,0,0,0-3.36,1.16,16.08,16.08,0,0,0-6.57,12.91c.11,2.2.93,3.8,2.31,4.5s3,.36,4.87-.78a14.37,14.37,0,0,0,4.94-5.68,14.83,14.83,0,0,0,1.75-7.23c-.12-2.2-.94-3.8-2.31-4.5A3.59,3.59,0,0,0,197.56,249Z" style="opacity: 0.2; transform-origin: 194.566px 258.483px;" class="animable" id="el7znxjt6owes"></path></g><path d="M227.89,288.42h-.24c-3.34-.27-5.69-5.16-5.23-10.9.44-5.59,3.36-10,6.59-10l.28,0c3.34.26,5.68,5.15,5.23,10.89C234,284.53,230.76,288.42,227.89,288.42ZM229,267.81c-3.1,0-5.91,4.27-6.34,9.73s1.8,10.37,5,10.63c2.76.22,6.14-3.72,6.61-9.72h0c.44-5.6-1.8-10.37-5-10.62Z" style="fill: #4F6B96; transform-origin: 228.469px 277.97px;" id="eliiv8ia5u4b" class="animable"></path><g id="el7qpr99fwe5a"><path d="M227.89,288.42h-.24c-3.34-.27-5.69-5.16-5.23-10.9.44-5.59,3.36-10,6.59-10l.28,0c3.34.26,5.68,5.15,5.23,10.89C234,284.53,230.76,288.42,227.89,288.42ZM229,267.81c-3.1,0-5.91,4.27-6.34,9.73s1.8,10.37,5,10.63c2.76.22,6.14-3.72,6.61-9.72h0c.44-5.6-1.8-10.37-5-10.62Z" style="opacity: 0.2; transform-origin: 228.469px 277.97px;" class="animable" id="el72jd2qyt7xk"></path></g><path d="M263.72,192.78a9.06,9.06,0,0,1-3.52-.7c-5.58-2.33-7.78-9.81-4.92-16.69a15.15,15.15,0,0,1,6.63-7.58,9.56,9.56,0,0,1,14.32,6,15.16,15.16,0,0,1-.71,10h0a15.15,15.15,0,0,1-6.63,7.58A10.8,10.8,0,0,1,263.72,192.78Zm3.35-26.1a10.53,10.53,0,0,0-5,1.35,14.9,14.9,0,0,0-6.52,7.46c-2.81,6.75-.66,14.09,4.79,16.36a9.71,9.71,0,0,0,8.47-.67,14.9,14.9,0,0,0,6.52-7.46l.11.05-.11-.05a14.91,14.91,0,0,0,.7-9.87,9.7,9.7,0,0,0-5.49-6.49A9,9,0,0,0,267.07,166.68Z" style="fill: #4F6B96; transform-origin: 265.395px 179.588px;" id="el3vlcdtb41r3" class="animable"></path><g id="elz6x3gjxwgx"><path d="M263.72,192.78a9.06,9.06,0,0,1-3.52-.7c-5.58-2.33-7.78-9.81-4.92-16.69a15.15,15.15,0,0,1,6.63-7.58,9.56,9.56,0,0,1,14.32,6,15.16,15.16,0,0,1-.71,10h0a15.15,15.15,0,0,1-6.63,7.58A10.8,10.8,0,0,1,263.72,192.78Zm3.35-26.1a10.53,10.53,0,0,0-5,1.35,14.9,14.9,0,0,0-6.52,7.46c-2.81,6.75-.66,14.09,4.79,16.36a9.71,9.71,0,0,0,8.47-.67,14.9,14.9,0,0,0,6.52-7.46l.11.05-.11-.05a14.91,14.91,0,0,0,.7-9.87,9.7,9.7,0,0,0-5.49-6.49A9,9,0,0,0,267.07,166.68Z" style="opacity: 0.2; transform-origin: 265.395px 179.588px;" class="animable" id="el4uji5xf7tqa"></path></g><path d="M195.43,144.12l11.63-5.71s-6.31-15.49-12.9-14.12C187.35,125.7,189.31,132.38,195.43,144.12Z" style="fill: #4F6B96; transform-origin: 198.466px 134.162px;" id="el5cei738aacc" class="animable"></path><g id="elzkng6uawqhc"><path d="M195.43,144.12l11.63-5.71s-6.31-15.49-12.9-14.12C187.35,125.7,189.31,132.38,195.43,144.12Z" style="opacity: 0.2; transform-origin: 198.466px 134.162px;" class="animable" id="elh7dln898gjv"></path></g><path d="M201,134.25l5.2,3s.38-10.9-2.18-11.4S200.42,128.39,201,134.25Z" style="fill: #4F6B96; transform-origin: 203.532px 131.523px;" id="ellf2vympzbih" class="animable"></path><g id="elbcd1yevakk"><path d="M201,134.25l5.2,3s.38-10.9-2.18-11.4S200.42,128.39,201,134.25Z" style="opacity: 0.2; transform-origin: 203.532px 131.523px;" class="animable" id="elz3614tu98f7"></path></g><path d="M307.68,238.17l-11.61-5.77s-8.46,14.44-3.36,18.84C298,255.79,302.08,250.17,307.68,238.17Z" style="fill: #4F6B96; transform-origin: 299.378px 242.606px;" id="el6uh6vktojq7" class="animable"></path><g id="el6qlp2xuwaji"><path d="M307.68,238.17l-11.61-5.77s-8.46,14.44-3.36,18.84C298,255.79,302.08,250.17,307.68,238.17Z" style="opacity: 0.2; transform-origin: 299.378px 242.606px;" class="animable" id="el8s8t0ffhkri"></path></g><path d="M296.47,239.77l-.75-6s-8.89,6.33-7.72,8.66S292.15,243.77,296.47,239.77Z" style="fill: #4F6B96; transform-origin: 292.182px 238.72px;" id="el3ipp0xog46i" class="animable"></path><g id="el4kboey7sngi"><path d="M296.47,239.77l-.75-6s-8.89,6.33-7.72,8.66S292.15,243.77,296.47,239.77Z" style="opacity: 0.2; transform-origin: 292.182px 238.72px;" class="animable" id="elv5zd1xx0vx8"></path></g><g id="ela3qosfv8gfg"><rect x="302.3" y="186.68" width="10.01" height="6.42" style="fill: #4F6B96; transform-origin: 307.305px 189.89px; transform: rotate(-26.81deg);" class="animable" id="el125ojz0ywxi"></rect></g><g id="elvqg9uxo6nfl"><rect x="302.3" y="186.68" width="10.01" height="6.42" style="opacity: 0.2; transform-origin: 307.305px 189.89px; transform: rotate(-26.81deg);" class="animable" id="el5hji5eoy9p6"></rect></g><path d="M276.64,215.47a.64.64,0,1,1,.67-.42A.57.57,0,0,1,276.64,215.47Z" style="fill: #4F6B96; transform-origin: 276.708px 214.838px;" id="ellrb7fouwq07" class="animable"></path><path d="M275.75,217.94a.64.64,0,0,1,.42-1.17.64.64,0,0,1-.42,1.17Z" style="fill: #4F6B96; transform-origin: 275.96px 217.355px;" id="eloeazesp567c" class="animable"></path><path d="M274.86,220.4a.64.64,0,1,1,.66-.42A.56.56,0,0,1,274.86,220.4Z" style="fill: #4F6B96; transform-origin: 274.918px 219.767px;" id="elz4onzjg7jyl" class="animable"></path><path d="M277.53,217.19a.64.64,0,1,1,.66-.42A.56.56,0,0,1,277.53,217.19Z" style="fill: #4F6B96; transform-origin: 277.588px 216.557px;" id="elopy92ajfgr9" class="animable"></path><path d="M276.64,219.65a.64.64,0,1,1,.66-.42A.56.56,0,0,1,276.64,219.65Z" style="fill: #4F6B96; transform-origin: 276.698px 219.017px;" id="elxrxu3qf71an" class="animable"></path><path d="M275.75,222.12a.56.56,0,0,1-.24-.75.49.49,0,1,1,.9.32A.56.56,0,0,1,275.75,222.12Z" style="fill: #4F6B96; transform-origin: 275.968px 221.534px;" id="elrx6wmxz5gh" class="animable"></path><g id="elgbyx3raqkmw"><g style="opacity: 0.2; transform-origin: 276.253px 218.163px;" class="animable" id="elstnhjtswovo"><path d="M276.64,215.47a.64.64,0,1,1,.67-.42A.57.57,0,0,1,276.64,215.47Z" id="elc1gidnpwrtl" class="animable" style="transform-origin: 276.708px 214.838px;"></path><path d="M275.75,217.94a.64.64,0,0,1,.42-1.17.64.64,0,0,1-.42,1.17Z" id="elqv8s66uepp" class="animable" style="transform-origin: 275.96px 217.355px;"></path><path d="M274.86,220.4a.64.64,0,1,1,.66-.42A.56.56,0,0,1,274.86,220.4Z" id="eljw23kau07lg" class="animable" style="transform-origin: 274.918px 219.767px;"></path><path d="M277.53,217.19a.64.64,0,1,1,.66-.42A.56.56,0,0,1,277.53,217.19Z" id="elf00if8vhv8l" class="animable" style="transform-origin: 277.588px 216.557px;"></path><path d="M276.64,219.65a.64.64,0,1,1,.66-.42A.56.56,0,0,1,276.64,219.65Z" id="elq7887taxat" class="animable" style="transform-origin: 276.698px 219.017px;"></path><path d="M275.75,222.12a.56.56,0,0,1-.24-.75.49.49,0,1,1,.9.32A.56.56,0,0,1,275.75,222.12Z" id="el0tcyhdr05gqn" class="animable" style="transform-origin: 275.968px 221.534px;"></path></g></g></g><defs>     <filter id="active" height="200%">         <feMorphology in="SourceAlpha" result="DILATED" operator="dilate" radius="2"></feMorphology>                <feFlood flood-color="#32DFEC" flood-opacity="1" result="PINK"></feFlood>        <feComposite in="PINK" in2="DILATED" operator="in" result="OUTLINE"></feComposite>        <feMerge>            <feMergeNode in="OUTLINE"></feMergeNode>            <feMergeNode in="SourceGraphic"></feMergeNode>        </feMerge>    </filter>    <filter id="hover" height="200%">        <feMorphology in="SourceAlpha" result="DILATED" operator="dilate" radius="2"></feMorphology>                <feFlood flood-color="#ff0000" flood-opacity="0.5" result="PINK"></feFlood>        <feComposite in="PINK" in2="DILATED" operator="in" result="OUTLINE"></feComposite>        <feMerge>            <feMergeNode in="OUTLINE"></feMergeNode>            <feMergeNode in="SourceGraphic"></feMergeNode>        </feMerge>            <feColorMatrix type="matrix" values="0   0   0   0   0                0   1   0   0   0                0   0   0   0   0                0   0   0   1   0 "></feColorMatrix>    </filter></defs></svg>